<svg width="64" height="64" viewBox="0 0 64 64" fill="none" xmlns="http://www.w3.org/2000/svg">
  <rect x="4" y="4" width="56" height="56" rx="17" fill="#14866D"/>
  <!-- plate -->
  <circle cx="32" cy="33" r="18" fill="#F8FBFA" stroke="#C8D5D1" stroke-width="1.5"/>
  <circle cx="32" cy="33" r="12.5" fill="#E7F2EE" stroke="#D6E2DE"/>
  <!-- complete silver fork -->
  <g stroke="#AEB9BD" stroke-width="2.2" stroke-linecap="round" stroke-linejoin="round">
    <path d="M14 15v10c0 2.5 2 4 4 4s4-1.5 4-4V15"/>
    <path d="M14 15v8M16.7 15v8M19.3 15v8M22 15v8M18 29v20"/>
  </g>
  <path d="M18 29v20" stroke="#DCE2E3" stroke-width="1" stroke-linecap="round"/>
  <!-- complete silver knife -->
  <path d="M49 15v35" stroke="#AEB9BD" stroke-width="2.5" stroke-linecap="round"/>
  <path d="M49 15c-5.5 3.4-6.7 11.1-3.1 16.2 1.1 1.5 1.9 3.2 1.9 5.1V50" fill="#CDD5D7" stroke="#AEB9BD" stroke-width="1.5" stroke-linejoin="round"/>
  <path d="M47.7 17.2c-3.2 3.6-3.8 8.2-1.8 12" stroke="#EEF1F1" stroke-width="1.2" stroke-linecap="round"/>
  <!-- carrot -->
  <path d="M27.2 33.2c3.7 1.1 8.7 5 10.2 8.5-3.7.8-9.5-2.6-11.7-6.3-.6-1-.1-2.5 1.5-2.2Z" fill="#E9793B"/>
  <path d="M27.3 33.4c-.7-2.6.4-4.7 2.5-5.8M28.6 33.5c1.5-2.3 3.5-3.2 5.8-2.6" stroke="#4E8B58" stroke-width="1.7" stroke-linecap="round"/>
  <path d="M29 35.5l5.2 3.6M27.8 37.4l4.1 3" stroke="#F7A66E" stroke-width="1" stroke-linecap="round"/>
  <!-- potato -->
  <path d="M41.3 27.6c2.9.5 4.8 2.8 4.3 5.5-.5 3.1-3.4 5.6-6.8 5.3-3-.2-4.8-2.4-4.3-5 .6-3.4 3.6-6.3 6.8-5.8Z" fill="#D9B474" stroke="#BC9358" stroke-width="1"/>
  <circle cx="41" cy="30.5" r=".8" fill="#A77B47"/>
  <circle cx="38" cy="34.5" r=".7" fill="#A77B47"/>
  <circle cx="43" cy="34" r=".65" fill="#A77B47"/>
</svg>
