<svg width="64" height="64" viewBox="0 0 64 64" fill="none" xmlns="http://www.w3.org/2000/svg">
  <title>Career Coach</title>
  <rect x="3" y="3" width="58" height="58" rx="18" fill="#6557D9"/>
  <path d="M15 28.5C15 16.7 21.5 9 32 9s17 7.7 17 19.5V43H15V28.5Z" fill="#4A291C"/>
    <path d="M12 61v-6.3c0-9.2 7.2-15.8 16.2-15.8h7.6c9 0 16.2 6.6 16.2 15.8V61H12Z" fill="#223A68"/>
  <path d="M25.4 40h13.2L32 54.4 25.4 40Z" fill="white"/>
  <path d="m21.2 41.2 7.2 6.5-3.8 6.2-6.9-10.7 3.5-2Zm21.6 0-7.2 6.5 3.8 6.2 6.9-10.7-3.5-2Z" fill="#3B578A"/>
  <path d="m32 45.2 2.7 3.1-1.8 9H32h-.9l-1.8-9 2.7-3.1Z" fill="#D65A55"/>
  <path d="M13.5 59.5h37" stroke="#182E57" stroke-width="2" stroke-linecap="round"/>
  <path d="M20.5 28c0-8 4.4-13.2 11.5-13.2S43.5 20 43.5 28v3.2c0 7.2-5.1 13-11.5 13s-11.5-5.8-11.5-13V28Z" fill="#F3B78F"/>
  <ellipse cx="20.4" cy="30.1" rx="2.3" ry="3.3" fill="#EAA57E"/>
  <ellipse cx="43.6" cy="30.1" rx="2.3" ry="3.3" fill="#EAA57E"/>
  <path d="M20 25.2C21 17.8 25.4 13 32.2 13c7.6 0 11.8 5.3 11.8 12.3-5.9-.4-10.6-2.5-14.5-6.2-2.2 3.2-5.3 5.2-9.5 6.1Z" fill="#643720"/>
  <path d="M19.8 26.2c-.2 7.8 1.4 13.7 5.6 17.3-6.7-1.2-9.5-6.5-9.5-13.6 0-7.2 2.5-12.4 7.6-15.2-2.7 3.2-3.7 6.7-3.7 11.5Zm24.4 0c.2 7.8-1.4 13.7-5.6 17.3 6.7-1.2 9.5-6.5 9.5-13.6 0-7.2-2.5-12.4-7.6-15.2 2.7 3.2 3.7 6.7 3.7 11.5Z" fill="#57301F"/>
  <path d="M25.2 27.7c1.4-.9 3.1-.9 4.4 0" stroke="#633724" stroke-width="1.5" stroke-linecap="round"/>
  <path d="M34.4 27.7c1.4-.9 3.1-.9 4.4 0" stroke="#633724" stroke-width="1.5" stroke-linecap="round"/>
  <ellipse cx="27.4" cy="30.3" rx="1.25" ry="1.55" fill="#3A281F"/>
  <ellipse cx="36.6" cy="30.3" rx="1.25" ry="1.55" fill="#3A281F"/>
  <circle cx="27.8" cy="29.8" r=".35" fill="white"/>
  <circle cx="37" cy="29.8" r=".35" fill="white"/>
  <path d="M32.1 30.8 31 34h2.1" stroke="#D48E69" stroke-width="1.2" stroke-linecap="round" stroke-linejoin="round"/>
  <path d="M28.5 36.8c2.1 2 4.9 2 7 0" stroke="#B75555" stroke-width="1.7" stroke-linecap="round"/>
</svg>
